<?xml version="1.0" encoding="iso-8859-1"?>
<!-- Generator: Adobe Illustrator 19.0.0, SVG Export Plug-In . SVG Version: 6.00 Build 0)  -->
<svg width="15px" height="15px" version="1.1" id="Capa_1" xmlns="http://www.w3.org/2000/svg" xmlns:xlink="http://www.w3.org/1999/xlink" x="0px" y="0px"
	 viewBox="0 0 512 512" xml:space="preserve">
<path style="fill:#1E955F;" d="M225.882,331.294c-7.981-0.03-15.616-3.223-21.233-8.885l-45.176-45.176
	c-11.761-11.761-11.761-30.856,0-42.616s30.856-11.761,42.616,0l25.449,25.449l84.179-72.132
	c13.809-9.276,32.527-5.587,41.788,8.222c7.695,11.475,6.611,26.699-2.635,36.954l-105.412,90.353
	C240.083,328.343,233.141,331.128,225.882,331.294z"/>
<path style="fill:#16644F;" d="M256,512C114.613,512,0,397.387,0,256S114.613,0,256,0s256,114.613,256,256S397.387,512,256,512z
	 M256,60.235C147.878,60.235,60.235,147.878,60.235,256S147.878,451.765,256,451.765S451.765,364.122,451.765,256
	S364.122,60.235,256,60.235z"/>
<g>
</g>
<g>
</g>
<g>
</g>
<g>
</g>
<g>
</g>
<g>
</g>
<g>
</g>
<g>
</g>
<g>
</g>
<g>
</g>
<g>
</g>
<g>
</g>
<g>
</g>
<g>
</g>
<g>
</g>
</svg>
